<?xml version="1.0" encoding="UTF-8" standalone="no"?><svg xmlns="http://www.w3.org/2000/svg" xmlns:xlink="http://www.w3.org/1999/xlink" contentScriptType="application/ecmascript" contentStyleType="text/css" height="1166px" preserveAspectRatio="none" style="width:3000px;height:1166px;" version="1.1" viewBox="0 0 3000 1166" width="3000px" zoomAndPan="magnify"><defs><filter height="300%" id="f1txkw6j3g52qa" width="300%" x="-1" y="-1"><feGaussianBlur result="blurOut" stdDeviation="2.0"/><feColorMatrix in="blurOut" result="blurOut2" type="matrix" values="0 0 0 0 0 0 0 0 0 0 0 0 0 0 0 0 0 0 .4 0"/><feOffset dx="4.0" dy="4.0" in="blurOut2" result="blurOut3"/><feBlend in="SourceGraphic" in2="blurOut3" mode="normal"/></filter></defs><g><!--MD5=[9859b7e54ef68cc75a502aae33405a03]
class GameManger--><rect codeLine="1" fill="#FEFECE" filter="url(#f1txkw6j3g52qa)" height="252.875" id="GameManger" style="stroke:#A80036;stroke-width:1.5;" width="265" x="7.5" y="26"/><ellipse cx="95.75" cy="42" fill="#ADD1B2" rx="11" ry="11" style="stroke:#A80036;stroke-width:1.0;"/><path d="M98.0938,37.6719 C97.1563,37.2344 96.5625,37.0938 95.6875,37.0938 C93.0625,37.0938 91.0625,39.1719 91.0625,41.8906 L91.0625,43.0156 C91.0625,45.5938 93.1719,47.4844 96.0625,47.4844 C97.2813,47.4844 98.4375,47.1875 99.1875,46.6406 C99.7656,46.2344 100.0938,45.7813 100.0938,45.3906 C100.0938,44.9375 99.7031,44.5469 99.2344,44.5469 C99.0156,44.5469 98.8125,44.625 98.625,44.8125 C98.1719,45.2969 98.1719,45.2969 97.9844,45.3906 C97.5625,45.6563 96.875,45.7813 96.1094,45.7813 C94.0625,45.7813 92.7656,44.6875 92.7656,42.9844 L92.7656,41.8906 C92.7656,40.1094 94.0156,38.7969 95.75,38.7969 C96.3281,38.7969 96.9375,38.9531 97.4063,39.2031 C97.8906,39.4844 98.0625,39.7031 98.1563,40.1094 C98.2188,40.5156 98.25,40.6406 98.3906,40.7656 C98.5313,40.9063 98.7656,41.0156 98.9844,41.0156 C99.25,41.0156 99.5156,40.875 99.6875,40.6563 C99.7969,40.5 99.8281,40.3125 99.8281,39.8906 L99.8281,38.4688 C99.8281,38.0313 99.8125,37.9063 99.7188,37.75 C99.5625,37.4844 99.2813,37.3438 98.9844,37.3438 C98.6875,37.3438 98.4844,37.4375 98.2656,37.75 L98.0938,37.6719 Z " fill="#000000"/><text fill="#000000" font-family="sans-serif" font-size="12" lengthAdjust="spacing" textLength="80" x="116.25" y="46.1543">GameManger</text><line style="stroke:#A80036;stroke-width:1.5;" x1="8.5" x2="271.5" y1="58" y2="58"/><text fill="#000000" font-family="sans-serif" font-size="11" lengthAdjust="spacing" textLength="167" x="13.5" y="72.2104">sf::RenderWindow m_window;</text><text fill="#000000" font-family="sans-serif" font-size="11" lengthAdjust="spacing" textLength="89" x="13.5" y="85.0151">Board m_board;</text><text fill="#000000" font-family="sans-serif" font-size="11" lengthAdjust="spacing" textLength="98" x="13.5" y="97.8198">sf::Clock m_clock;</text><text fill="#000000" font-family="sans-serif" font-size="11" lengthAdjust="spacing" textLength="143" x="13.5" y="110.6245">sf::Clock m_clockRunning;</text><text fill="#000000" font-family="sans-serif" font-size="11" lengthAdjust="spacing" textLength="140" x="13.5" y="123.4292">sf::Time m_timeRunning;</text><text fill="#000000" font-family="sans-serif" font-size="11" lengthAdjust="spacing" textLength="104" x="13.5" y="136.2339">sf::Music m_music;</text><text fill="#000000" font-family="sans-serif" font-size="11" lengthAdjust="spacing" textLength="144" x="13.5" y="149.0386">sf::Vector2f m_MousePos;</text><text fill="#000000" font-family="sans-serif" font-size="11" lengthAdjust="spacing" textLength="119" x="13.5" y="161.8433">int m_counterLevels;</text><line style="stroke:#A80036;stroke-width:1.5;" x1="8.5" x2="271.5" y1="168.4375" y2="168.4375"/><text fill="#000000" font-family="sans-serif" font-size="11" lengthAdjust="spacing" textLength="57" x="13.5" y="182.6479">void Run()</text><text fill="#000000" font-family="sans-serif" font-size="11" lengthAdjust="spacing" textLength="253" x="13.5" y="195.4526">void setSizeWindow(const sf::Vector2f size);</text><text fill="#000000" font-family="sans-serif" font-size="11" lengthAdjust="spacing" textLength="131" x="13.5" y="208.2573">void handleWinLevel();</text><text fill="#000000" font-family="sans-serif" font-size="11" lengthAdjust="spacing" textLength="144" x="13.5" y="221.062">void handleLooseLevel();</text><text fill="#000000" font-family="sans-serif" font-size="11" lengthAdjust="spacing" textLength="135" x="13.5" y="233.8667">void welcomeWindow();</text><text fill="#000000" font-family="sans-serif" font-size="11" lengthAdjust="spacing" textLength="90" x="13.5" y="246.6714">void winLevel();</text><text fill="#000000" font-family="sans-serif" font-size="11" lengthAdjust="spacing" textLength="105" x="13.5" y="259.4761">void looseGame();</text><text fill="#000000" font-family="sans-serif" font-size="11" lengthAdjust="spacing" textLength="93" x="13.5" y="272.2808">void winGame();</text><!--MD5=[9563755d011c5cec7ec66dc53565a59e]
class Board--><rect codeLine="21" fill="#FEFECE" filter="url(#f1txkw6j3g52qa)" height="291.2891" id="Board" style="stroke:#A80036;stroke-width:1.5;" width="371" x="307.5" y="7"/><ellipse cx="470.75" cy="23" fill="#ADD1B2" rx="11" ry="11" style="stroke:#A80036;stroke-width:1.0;"/><path d="M473.0938,18.6719 C472.1563,18.2344 471.5625,18.0938 470.6875,18.0938 C468.0625,18.0938 466.0625,20.1719 466.0625,22.8906 L466.0625,24.0156 C466.0625,26.5938 468.1719,28.4844 471.0625,28.4844 C472.2813,28.4844 473.4375,28.1875 474.1875,27.6406 C474.7656,27.2344 475.0938,26.7813 475.0938,26.3906 C475.0938,25.9375 474.7031,25.5469 474.2344,25.5469 C474.0156,25.5469 473.8125,25.625 473.625,25.8125 C473.1719,26.2969 473.1719,26.2969 472.9844,26.3906 C472.5625,26.6563 471.875,26.7813 471.1094,26.7813 C469.0625,26.7813 467.7656,25.6875 467.7656,23.9844 L467.7656,22.8906 C467.7656,21.1094 469.0156,19.7969 470.75,19.7969 C471.3281,19.7969 471.9375,19.9531 472.4063,20.2031 C472.8906,20.4844 473.0625,20.7031 473.1563,21.1094 C473.2188,21.5156 473.25,21.6406 473.3906,21.7656 C473.5313,21.9063 473.7656,22.0156 473.9844,22.0156 C474.25,22.0156 474.5156,21.875 474.6875,21.6563 C474.7969,21.5 474.8281,21.3125 474.8281,20.8906 L474.8281,19.4688 C474.8281,19.0313 474.8125,18.9063 474.7188,18.75 C474.5625,18.4844 474.2813,18.3438 473.9844,18.3438 C473.6875,18.3438 473.4844,18.4375 473.2656,18.75 L473.0938,18.6719 Z " fill="#000000"/><text fill="#000000" font-family="sans-serif" font-size="12" lengthAdjust="spacing" textLength="36" x="491.25" y="27.1543">Board</text><line style="stroke:#A80036;stroke-width:1.5;" x1="308.5" x2="677.5" y1="39" y2="39"/><line style="stroke:#A80036;stroke-width:1.5;" x1="308.5" x2="677.5" y1="47" y2="47"/><text fill="#000000" font-family="sans-serif" font-size="11" lengthAdjust="spacing" textLength="88" x="313.5" y="61.2104">void openFile();</text><text fill="#000000" font-family="sans-serif" font-size="11" lengthAdjust="spacing" textLength="117" x="313.5" y="74.0151">void allocateBoard();</text><text fill="#000000" font-family="sans-serif" font-size="11" lengthAdjust="spacing" textLength="258" x="313.5" y="86.8198">void Draw(sf::RenderWindow&amp; window) const;</text><text fill="#000000" font-family="sans-serif" font-size="11" lengthAdjust="spacing" textLength="359" x="313.5" y="99.6245">void Update(const sf::Time&amp; currTime, const sf::Time runTime);</text><text fill="#000000" font-family="sans-serif" font-size="11" lengthAdjust="spacing" textLength="256" x="313.5" y="112.4292">void floorDigged(const sf::Vector2f direction);</text><text fill="#000000" font-family="sans-serif" font-size="11" lengthAdjust="spacing" textLength="136" x="313.5" y="125.2339">void setLevel(int level);</text><text fill="#000000" font-family="sans-serif" font-size="11" lengthAdjust="spacing" textLength="125" x="313.5" y="138.0386">void setLevelStatus();</text><text fill="#000000" font-family="sans-serif" font-size="11" lengthAdjust="spacing" textLength="129" x="313.5" y="150.8433">void setRestartLevel();</text><text fill="#000000" font-family="sans-serif" font-size="11" lengthAdjust="spacing" textLength="216" x="313.5" y="163.6479">void setTime(const sf::Time runTime);</text><text fill="#000000" font-family="sans-serif" font-size="11" lengthAdjust="spacing" textLength="191" x="313.5" y="176.4526">sf::Vector2f getSizeBoard() const;</text><text fill="#000000" font-family="sans-serif" font-size="11" lengthAdjust="spacing" textLength="160" x="313.5" y="189.2573">bool getLevelStatus() const;</text><text fill="#000000" font-family="sans-serif" font-size="11" lengthAdjust="spacing" textLength="164" x="313.5" y="202.062">bool getRestartLevel() const;</text><text fill="#000000" font-family="sans-serif" font-size="11" lengthAdjust="spacing" textLength="110" x="313.5" y="214.8667">int getLevel()const;</text><text fill="#000000" font-family="sans-serif" font-size="11" lengthAdjust="spacing" textLength="99" x="313.5" y="227.6714">int getLife()const;</text><text fill="#000000" font-family="sans-serif" font-size="11" lengthAdjust="spacing" textLength="111" x="313.5" y="240.4761">int getScore()const;</text><text fill="#000000" font-family="sans-serif" font-size="11" lengthAdjust="spacing" textLength="122" x="313.5" y="253.2808">float getTime() const;</text><text fill="#000000" font-family="sans-serif" font-size="11" lengthAdjust="spacing" textLength="109" x="313.5" y="266.0854">int getCoins()const;</text><text fill="#000000" font-family="sans-serif" font-size="11" lengthAdjust="spacing" textLength="148" x="313.5" y="278.8901">bool getEndGame() const;</text><text fill="#000000" font-family="sans-serif" font-size="11" lengthAdjust="spacing" textLength="148" x="313.5" y="291.6948">bool getWinGame() const;</text><!--MD5=[064f7a74fee85463ec1a30143664ee17]
class GameObject--><rect codeLine="45" fill="#FEFECE" filter="url(#f1txkw6j3g52qa)" height="150.4375" id="GameObject" style="stroke:#A80036;stroke-width:1.5;" width="355" x="1060.5" y="77.5"/><ellipse cx="1196.25" cy="93.5" fill="#ADD1B2" rx="11" ry="11" style="stroke:#A80036;stroke-width:1.0;"/><path d="M1198.5938,89.1719 C1197.6563,88.7344 1197.0625,88.5938 1196.1875,88.5938 C1193.5625,88.5938 1191.5625,90.6719 1191.5625,93.3906 L1191.5625,94.5156 C1191.5625,97.0938 1193.6719,98.9844 1196.5625,98.9844 C1197.7813,98.9844 1198.9375,98.6875 1199.6875,98.1406 C1200.2656,97.7344 1200.5938,97.2813 1200.5938,96.8906 C1200.5938,96.4375 1200.2031,96.0469 1199.7344,96.0469 C1199.5156,96.0469 1199.3125,96.125 1199.125,96.3125 C1198.6719,96.7969 1198.6719,96.7969 1198.4844,96.8906 C1198.0625,97.1563 1197.375,97.2813 1196.6094,97.2813 C1194.5625,97.2813 1193.2656,96.1875 1193.2656,94.4844 L1193.2656,93.3906 C1193.2656,91.6094 1194.5156,90.2969 1196.25,90.2969 C1196.8281,90.2969 1197.4375,90.4531 1197.9063,90.7031 C1198.3906,90.9844 1198.5625,91.2031 1198.6563,91.6094 C1198.7188,92.0156 1198.75,92.1406 1198.8906,92.2656 C1199.0313,92.4063 1199.2656,92.5156 1199.4844,92.5156 C1199.75,92.5156 1200.0156,92.375 1200.1875,92.1563 C1200.2969,92 1200.3281,91.8125 1200.3281,91.3906 L1200.3281,89.9688 C1200.3281,89.5313 1200.3125,89.4063 1200.2188,89.25 C1200.0625,88.9844 1199.7813,88.8438 1199.4844,88.8438 C1199.1875,88.8438 1198.9844,88.9375 1198.7656,89.25 L1198.5938,89.1719 Z " fill="#000000"/><text fill="#000000" font-family="sans-serif" font-size="12" lengthAdjust="spacing" textLength="75" x="1216.75" y="97.6543">GameObject</text><line style="stroke:#A80036;stroke-width:1.5;" x1="1061.5" x2="1414.5" y1="109.5" y2="109.5"/><line style="stroke:#A80036;stroke-width:1.5;" x1="1061.5" x2="1414.5" y1="117.5" y2="117.5"/><text fill="#000000" font-family="sans-serif" font-size="11" lengthAdjust="spacing" textLength="258" x="1066.5" y="131.7104">void Draw(sf::RenderWindow&amp; window) const;</text><text fill="#000000" font-family="sans-serif" font-size="11" lengthAdjust="spacing" textLength="296" x="1066.5" y="144.5151">bool collidesWith(GameObject&amp; gameObject) const;</text><text fill="#000000" font-family="sans-serif" font-size="11" lengthAdjust="spacing" textLength="343" x="1066.5" y="157.3198">virtual void handleCollision(GameObject&amp; gameObject) = 0;</text><text fill="#000000" font-family="sans-serif" font-size="11" lengthAdjust="spacing" textLength="216" x="1066.5" y="170.1245">void setLocation(sf::Vector2f location);</text><text fill="#000000" font-family="sans-serif" font-size="11" lengthAdjust="spacing" textLength="177" x="1066.5" y="182.9292">void setSprite(sf::Sprite sprite);</text><text fill="#000000" font-family="sans-serif" font-size="11" lengthAdjust="spacing" textLength="239" x="1066.5" y="195.7339">void setLastLocation(sf::Vector2f location);</text><text fill="#000000" font-family="sans-serif" font-size="11" lengthAdjust="spacing" textLength="80" x="1066.5" y="208.5386">void setInPit();</text><text fill="#000000" font-family="sans-serif" font-size="11" lengthAdjust="spacing" textLength="99" x="1066.5" y="221.3433">void setNotInPit();</text><!--MD5=[45c81575b743c0960d996f87188658c4]
class MovingObject--><rect codeLine="57" fill="#FEFECE" filter="url(#f1txkw6j3g52qa)" height="99.2188" id="MovingObject" style="stroke:#A80036;stroke-width:1.5;" width="287" x="683.5" y="390"/><ellipse cx="781.25" cy="406" fill="#ADD1B2" rx="11" ry="11" style="stroke:#A80036;stroke-width:1.0;"/><path d="M783.5938,401.6719 C782.6563,401.2344 782.0625,401.0938 781.1875,401.0938 C778.5625,401.0938 776.5625,403.1719 776.5625,405.8906 L776.5625,407.0156 C776.5625,409.5938 778.6719,411.4844 781.5625,411.4844 C782.7813,411.4844 783.9375,411.1875 784.6875,410.6406 C785.2656,410.2344 785.5938,409.7813 785.5938,409.3906 C785.5938,408.9375 785.2031,408.5469 784.7344,408.5469 C784.5156,408.5469 784.3125,408.625 784.125,408.8125 C783.6719,409.2969 783.6719,409.2969 783.4844,409.3906 C783.0625,409.6563 782.375,409.7813 781.6094,409.7813 C779.5625,409.7813 778.2656,408.6875 778.2656,406.9844 L778.2656,405.8906 C778.2656,404.1094 779.5156,402.7969 781.25,402.7969 C781.8281,402.7969 782.4375,402.9531 782.9063,403.2031 C783.3906,403.4844 783.5625,403.7031 783.6563,404.1094 C783.7188,404.5156 783.75,404.6406 783.8906,404.7656 C784.0313,404.9063 784.2656,405.0156 784.4844,405.0156 C784.75,405.0156 785.0156,404.875 785.1875,404.6563 C785.2969,404.5 785.3281,404.3125 785.3281,403.8906 L785.3281,402.4688 C785.3281,402.0313 785.3125,401.9063 785.2188,401.75 C785.0625,401.4844 784.7813,401.3438 784.4844,401.3438 C784.1875,401.3438 783.9844,401.4375 783.7656,401.75 L783.5938,401.6719 Z " fill="#000000"/><text fill="#000000" font-family="sans-serif" font-size="12" lengthAdjust="spacing" textLength="83" x="801.75" y="410.1543">MovingObject</text><line style="stroke:#A80036;stroke-width:1.5;" x1="684.5" x2="969.5" y1="422" y2="422"/><text fill="#000000" font-family="sans-serif" font-size="11" lengthAdjust="spacing" textLength="155" x="689.5" y="436.2104">sf::Vector2f m_lastLocation;</text><text fill="#000000" font-family="sans-serif" font-size="11" lengthAdjust="spacing" textLength="137" x="689.5" y="449.0151">sf::Vector2f m_direction;</text><line style="stroke:#A80036;stroke-width:1.5;" x1="684.5" x2="969.5" y1="455.6094" y2="455.6094"/><text fill="#000000" font-family="sans-serif" font-size="11" lengthAdjust="spacing" textLength="275" x="689.5" y="469.8198">virtual void Move(const sf::Time&amp; currTime) = 0;</text><text fill="#000000" font-family="sans-serif" font-size="11" lengthAdjust="spacing" textLength="225" x="689.5" y="482.6245">void setDirection(sf::Vector2f direction);</text><!--MD5=[7c650d6d2ce103bec6d76affe2c6d46b]
class StaticObject--><rect codeLine="65" fill="#FEFECE" filter="url(#f1txkw6j3g52qa)" height="137.6328" id="StaticObject" style="stroke:#A80036;stroke-width:1.5;" width="209" x="1669.5" y="370.5"/><ellipse cx="1733.25" cy="386.5" fill="#ADD1B2" rx="11" ry="11" style="stroke:#A80036;stroke-width:1.0;"/><path d="M1735.5938,382.1719 C1734.6563,381.7344 1734.0625,381.5938 1733.1875,381.5938 C1730.5625,381.5938 1728.5625,383.6719 1728.5625,386.3906 L1728.5625,387.5156 C1728.5625,390.0938 1730.6719,391.9844 1733.5625,391.9844 C1734.7813,391.9844 1735.9375,391.6875 1736.6875,391.1406 C1737.2656,390.7344 1737.5938,390.2813 1737.5938,389.8906 C1737.5938,389.4375 1737.2031,389.0469 1736.7344,389.0469 C1736.5156,389.0469 1736.3125,389.125 1736.125,389.3125 C1735.6719,389.7969 1735.6719,389.7969 1735.4844,389.8906 C1735.0625,390.1563 1734.375,390.2813 1733.6094,390.2813 C1731.5625,390.2813 1730.2656,389.1875 1730.2656,387.4844 L1730.2656,386.3906 C1730.2656,384.6094 1731.5156,383.2969 1733.25,383.2969 C1733.8281,383.2969 1734.4375,383.4531 1734.9063,383.7031 C1735.3906,383.9844 1735.5625,384.2031 1735.6563,384.6094 C1735.7188,385.0156 1735.75,385.1406 1735.8906,385.2656 C1736.0313,385.4063 1736.2656,385.5156 1736.4844,385.5156 C1736.75,385.5156 1737.0156,385.375 1737.1875,385.1563 C1737.2969,385 1737.3281,384.8125 1737.3281,384.3906 L1737.3281,382.9688 C1737.3281,382.5313 1737.3125,382.4063 1737.2188,382.25 C1737.0625,381.9844 1736.7813,381.8438 1736.4844,381.8438 C1736.1875,381.8438 1735.9844,381.9375 1735.7656,382.25 L1735.5938,382.1719 Z " fill="#000000"/><text fill="#000000" font-family="sans-serif" font-size="12" lengthAdjust="spacing" textLength="73" x="1753.75" y="390.6543">StaticObject</text><line style="stroke:#A80036;stroke-width:1.5;" x1="1670.5" x2="1877.5" y1="402.5" y2="402.5"/><text fill="#000000" font-family="sans-serif" font-size="11" lengthAdjust="spacing" textLength="169" x="1675.5" y="416.7104">bool m_isUndrawable = false;</text><text fill="#000000" font-family="sans-serif" font-size="11" lengthAdjust="spacing" textLength="98" x="1675.5" y="429.5151">sf::Clock m_clock;</text><line style="stroke:#A80036;stroke-width:1.5;" x1="1670.5" x2="1877.5" y1="436.1094" y2="436.1094"/><text fill="#000000" font-family="sans-serif" font-size="11" lengthAdjust="spacing" textLength="126" x="1675.5" y="450.3198">void setUnDrawable();</text><text fill="#000000" font-family="sans-serif" font-size="11" lengthAdjust="spacing" textLength="111" x="1675.5" y="463.1245">void setDrawable();</text><text fill="#000000" font-family="sans-serif" font-size="11" lengthAdjust="spacing" textLength="86" x="1675.5" y="475.9292">void setTime();</text><text fill="#000000" font-family="sans-serif" font-size="11" lengthAdjust="spacing" textLength="197" x="1675.5" y="488.7339">bool getUnDrawableStatus() const;</text><text fill="#000000" font-family="sans-serif" font-size="11" lengthAdjust="spacing" textLength="142" x="1675.5" y="501.5386">sf::Time getTime() const;</text><!--MD5=[921b37cea2182e2241b44791b2bf37ef]
class ConstStaticObj--><rect codeLine="77" fill="#FEFECE" filter="url(#f1txkw6j3g52qa)" height="48" id="ConstStaticObj" style="stroke:#A80036;stroke-width:1.5;" width="120" x="1714" y="677"/><ellipse cx="1729" cy="693" fill="#ADD1B2" rx="11" ry="11" style="stroke:#A80036;stroke-width:1.0;"/><path d="M1731.3438,688.6719 C1730.4063,688.2344 1729.8125,688.0938 1728.9375,688.0938 C1726.3125,688.0938 1724.3125,690.1719 1724.3125,692.8906 L1724.3125,694.0156 C1724.3125,696.5938 1726.4219,698.4844 1729.3125,698.4844 C1730.5313,698.4844 1731.6875,698.1875 1732.4375,697.6406 C1733.0156,697.2344 1733.3438,696.7813 1733.3438,696.3906 C1733.3438,695.9375 1732.9531,695.5469 1732.4844,695.5469 C1732.2656,695.5469 1732.0625,695.625 1731.875,695.8125 C1731.4219,696.2969 1731.4219,696.2969 1731.2344,696.3906 C1730.8125,696.6563 1730.125,696.7813 1729.3594,696.7813 C1727.3125,696.7813 1726.0156,695.6875 1726.0156,693.9844 L1726.0156,692.8906 C1726.0156,691.1094 1727.2656,689.7969 1729,689.7969 C1729.5781,689.7969 1730.1875,689.9531 1730.6563,690.2031 C1731.1406,690.4844 1731.3125,690.7031 1731.4063,691.1094 C1731.4688,691.5156 1731.5,691.6406 1731.6406,691.7656 C1731.7813,691.9063 1732.0156,692.0156 1732.2344,692.0156 C1732.5,692.0156 1732.7656,691.875 1732.9375,691.6563 C1733.0469,691.5 1733.0781,691.3125 1733.0781,690.8906 L1733.0781,689.4688 C1733.0781,689.0313 1733.0625,688.9063 1732.9688,688.75 C1732.8125,688.4844 1732.5313,688.3438 1732.2344,688.3438 C1731.9375,688.3438 1731.7344,688.4375 1731.5156,688.75 L1731.3438,688.6719 Z " fill="#000000"/><text fill="#000000" font-family="sans-serif" font-size="12" lengthAdjust="spacing" textLength="88" x="1743" y="697.1543">ConstStaticObj</text><line style="stroke:#A80036;stroke-width:1.5;" x1="1715" x2="1833" y1="709" y2="709"/><line style="stroke:#A80036;stroke-width:1.5;" x1="1715" x2="1833" y1="717" y2="717"/><!--MD5=[2511101db3969b7cf3baf8bd7f4019b2]
class VariableStaticObj--><rect codeLine="81" fill="#FEFECE" filter="url(#f1txkw6j3g52qa)" height="48" id="VariableStaticObj" style="stroke:#A80036;stroke-width:1.5;" width="135" x="2367.5" y="677"/><ellipse cx="2382.5" cy="693" fill="#ADD1B2" rx="11" ry="11" style="stroke:#A80036;stroke-width:1.0;"/><path d="M2384.8438,688.6719 C2383.9063,688.2344 2383.3125,688.0938 2382.4375,688.0938 C2379.8125,688.0938 2377.8125,690.1719 2377.8125,692.8906 L2377.8125,694.0156 C2377.8125,696.5938 2379.9219,698.4844 2382.8125,698.4844 C2384.0313,698.4844 2385.1875,698.1875 2385.9375,697.6406 C2386.5156,697.2344 2386.8438,696.7813 2386.8438,696.3906 C2386.8438,695.9375 2386.4531,695.5469 2385.9844,695.5469 C2385.7656,695.5469 2385.5625,695.625 2385.375,695.8125 C2384.9219,696.2969 2384.9219,696.2969 2384.7344,696.3906 C2384.3125,696.6563 2383.625,696.7813 2382.8594,696.7813 C2380.8125,696.7813 2379.5156,695.6875 2379.5156,693.9844 L2379.5156,692.8906 C2379.5156,691.1094 2380.7656,689.7969 2382.5,689.7969 C2383.0781,689.7969 2383.6875,689.9531 2384.1563,690.2031 C2384.6406,690.4844 2384.8125,690.7031 2384.9063,691.1094 C2384.9688,691.5156 2385,691.6406 2385.1406,691.7656 C2385.2813,691.9063 2385.5156,692.0156 2385.7344,692.0156 C2386,692.0156 2386.2656,691.875 2386.4375,691.6563 C2386.5469,691.5 2386.5781,691.3125 2386.5781,690.8906 L2386.5781,689.4688 C2386.5781,689.0313 2386.5625,688.9063 2386.4688,688.75 C2386.3125,688.4844 2386.0313,688.3438 2385.7344,688.3438 C2385.4375,688.3438 2385.2344,688.4375 2385.0156,688.75 L2384.8438,688.6719 Z " fill="#000000"/><text fill="#000000" font-family="sans-serif" font-size="12" lengthAdjust="spacing" textLength="103" x="2396.5" y="697.1543">VariableStaticObj</text><line style="stroke:#A80036;stroke-width:1.5;" x1="2368.5" x2="2501.5" y1="709" y2="709"/><line style="stroke:#A80036;stroke-width:1.5;" x1="2368.5" x2="2501.5" y1="717" y2="717"/><!--MD5=[4986b83e9bd62404d41350bb52758c36]
class Ladder--><rect codeLine="85" fill="#FEFECE" filter="url(#f1txkw6j3g52qa)" height="86.4141" id="Ladder" style="stroke:#A80036;stroke-width:1.5;" width="344" x="1223" y="894"/><ellipse cx="1369.75" cy="910" fill="#ADD1B2" rx="11" ry="11" style="stroke:#A80036;stroke-width:1.0;"/><path d="M1372.0938,905.6719 C1371.1563,905.2344 1370.5625,905.0938 1369.6875,905.0938 C1367.0625,905.0938 1365.0625,907.1719 1365.0625,909.8906 L1365.0625,911.0156 C1365.0625,913.5938 1367.1719,915.4844 1370.0625,915.4844 C1371.2813,915.4844 1372.4375,915.1875 1373.1875,914.6406 C1373.7656,914.2344 1374.0938,913.7813 1374.0938,913.3906 C1374.0938,912.9375 1373.7031,912.5469 1373.2344,912.5469 C1373.0156,912.5469 1372.8125,912.625 1372.625,912.8125 C1372.1719,913.2969 1372.1719,913.2969 1371.9844,913.3906 C1371.5625,913.6563 1370.875,913.7813 1370.1094,913.7813 C1368.0625,913.7813 1366.7656,912.6875 1366.7656,910.9844 L1366.7656,909.8906 C1366.7656,908.1094 1368.0156,906.7969 1369.75,906.7969 C1370.3281,906.7969 1370.9375,906.9531 1371.4063,907.2031 C1371.8906,907.4844 1372.0625,907.7031 1372.1563,908.1094 C1372.2188,908.5156 1372.25,908.6406 1372.3906,908.7656 C1372.5313,908.9063 1372.7656,909.0156 1372.9844,909.0156 C1373.25,909.0156 1373.5156,908.875 1373.6875,908.6563 C1373.7969,908.5 1373.8281,908.3125 1373.8281,907.8906 L1373.8281,906.4688 C1373.8281,906.0313 1373.8125,905.9063 1373.7188,905.75 C1373.5625,905.4844 1373.2813,905.3438 1372.9844,905.3438 C1372.6875,905.3438 1372.4844,905.4375 1372.2656,905.75 L1372.0938,905.6719 Z " fill="#000000"/><text fill="#000000" font-family="sans-serif" font-size="12" lengthAdjust="spacing" textLength="42" x="1390.25" y="914.1543">Ladder</text><line style="stroke:#A80036;stroke-width:1.5;" x1="1224" x2="1566" y1="926" y2="926"/><text fill="#000000" font-family="sans-serif" font-size="11" lengthAdjust="spacing" textLength="157" x="1229" y="940.2104">bool m_isOnLadder = false;</text><line style="stroke:#A80036;stroke-width:1.5;" x1="1224" x2="1566" y1="946.8047" y2="946.8047"/><text fill="#000000" font-family="sans-serif" font-size="11" lengthAdjust="spacing" textLength="332" x="1229" y="961.0151">void handleCollision(GameObject&amp; gameObject) override;</text><text fill="#000000" font-family="sans-serif" font-size="11" lengthAdjust="spacing" textLength="137" x="1229" y="973.8198">bool isOnLadder() const;</text><!--MD5=[59bce6008c6de98b4658296f264e2d74]
class Pole--><rect codeLine="91" fill="#FEFECE" filter="url(#f1txkw6j3g52qa)" height="60.8047" id="Pole" style="stroke:#A80036;stroke-width:1.5;" width="344" x="1602" y="906.5"/><ellipse cx="1757.25" cy="922.5" fill="#ADD1B2" rx="11" ry="11" style="stroke:#A80036;stroke-width:1.0;"/><path d="M1759.5938,918.1719 C1758.6563,917.7344 1758.0625,917.5938 1757.1875,917.5938 C1754.5625,917.5938 1752.5625,919.6719 1752.5625,922.3906 L1752.5625,923.5156 C1752.5625,926.0938 1754.6719,927.9844 1757.5625,927.9844 C1758.7813,927.9844 1759.9375,927.6875 1760.6875,927.1406 C1761.2656,926.7344 1761.5938,926.2813 1761.5938,925.8906 C1761.5938,925.4375 1761.2031,925.0469 1760.7344,925.0469 C1760.5156,925.0469 1760.3125,925.125 1760.125,925.3125 C1759.6719,925.7969 1759.6719,925.7969 1759.4844,925.8906 C1759.0625,926.1563 1758.375,926.2813 1757.6094,926.2813 C1755.5625,926.2813 1754.2656,925.1875 1754.2656,923.4844 L1754.2656,922.3906 C1754.2656,920.6094 1755.5156,919.2969 1757.25,919.2969 C1757.8281,919.2969 1758.4375,919.4531 1758.9063,919.7031 C1759.3906,919.9844 1759.5625,920.2031 1759.6563,920.6094 C1759.7188,921.0156 1759.75,921.1406 1759.8906,921.2656 C1760.0313,921.4063 1760.2656,921.5156 1760.4844,921.5156 C1760.75,921.5156 1761.0156,921.375 1761.1875,921.1563 C1761.2969,921 1761.3281,920.8125 1761.3281,920.3906 L1761.3281,918.9688 C1761.3281,918.5313 1761.3125,918.4063 1761.2188,918.25 C1761.0625,917.9844 1760.7813,917.8438 1760.4844,917.8438 C1760.1875,917.8438 1759.9844,917.9375 1759.7656,918.25 L1759.5938,918.1719 Z " fill="#000000"/><text fill="#000000" font-family="sans-serif" font-size="12" lengthAdjust="spacing" textLength="25" x="1777.75" y="926.6543">Pole</text><line style="stroke:#A80036;stroke-width:1.5;" x1="1603" x2="1945" y1="938.5" y2="938.5"/><line style="stroke:#A80036;stroke-width:1.5;" x1="1603" x2="1945" y1="946.5" y2="946.5"/><text fill="#000000" font-family="sans-serif" font-size="11" lengthAdjust="spacing" textLength="332" x="1608" y="960.7104">void handleCollision(GameObject&amp; gameObject) override;</text><!--MD5=[08dfe6c59ed9ecb4018cfd2b80128be4]
class Wall--><rect codeLine="97" fill="#FEFECE" filter="url(#f1txkw6j3g52qa)" height="60.8047" id="Wall" style="stroke:#A80036;stroke-width:1.5;" width="344" x="1981" y="906.5"/><ellipse cx="2136.25" cy="922.5" fill="#ADD1B2" rx="11" ry="11" style="stroke:#A80036;stroke-width:1.0;"/><path d="M2138.5938,918.1719 C2137.6563,917.7344 2137.0625,917.5938 2136.1875,917.5938 C2133.5625,917.5938 2131.5625,919.6719 2131.5625,922.3906 L2131.5625,923.5156 C2131.5625,926.0938 2133.6719,927.9844 2136.5625,927.9844 C2137.7813,927.9844 2138.9375,927.6875 2139.6875,927.1406 C2140.2656,926.7344 2140.5938,926.2813 2140.5938,925.8906 C2140.5938,925.4375 2140.2031,925.0469 2139.7344,925.0469 C2139.5156,925.0469 2139.3125,925.125 2139.125,925.3125 C2138.6719,925.7969 2138.6719,925.7969 2138.4844,925.8906 C2138.0625,926.1563 2137.375,926.2813 2136.6094,926.2813 C2134.5625,926.2813 2133.2656,925.1875 2133.2656,923.4844 L2133.2656,922.3906 C2133.2656,920.6094 2134.5156,919.2969 2136.25,919.2969 C2136.8281,919.2969 2137.4375,919.4531 2137.9063,919.7031 C2138.3906,919.9844 2138.5625,920.2031 2138.6563,920.6094 C2138.7188,921.0156 2138.75,921.1406 2138.8906,921.2656 C2139.0313,921.4063 2139.2656,921.5156 2139.4844,921.5156 C2139.75,921.5156 2140.0156,921.375 2140.1875,921.1563 C2140.2969,921 2140.3281,920.8125 2140.3281,920.3906 L2140.3281,918.9688 C2140.3281,918.5313 2140.3125,918.4063 2140.2188,918.25 C2140.0625,917.9844 2139.7813,917.8438 2139.4844,917.8438 C2139.1875,917.8438 2138.9844,917.9375 2138.7656,918.25 L2138.5938,918.1719 Z " fill="#000000"/><text fill="#000000" font-family="sans-serif" font-size="12" lengthAdjust="spacing" textLength="25" x="2156.75" y="926.6543">Wall</text><line style="stroke:#A80036;stroke-width:1.5;" x1="1982" x2="2324" y1="938.5" y2="938.5"/><line style="stroke:#A80036;stroke-width:1.5;" x1="1982" x2="2324" y1="946.5" y2="946.5"/><text fill="#000000" font-family="sans-serif" font-size="11" lengthAdjust="spacing" textLength="332" x="1987" y="960.7104">void handleCollision(GameObject&amp; gameObject) override;</text><!--MD5=[935b737c799241269954e96d27412254]
class Present--><rect codeLine="101" fill="#FEFECE" filter="url(#f1txkw6j3g52qa)" height="73.6094" id="Present" style="stroke:#A80036;stroke-width:1.5;" width="149" x="2360.5" y="900"/><ellipse cx="2408.25" cy="916" fill="#ADD1B2" rx="11" ry="11" style="stroke:#A80036;stroke-width:1.0;"/><path d="M2410.5938,911.6719 C2409.6563,911.2344 2409.0625,911.0938 2408.1875,911.0938 C2405.5625,911.0938 2403.5625,913.1719 2403.5625,915.8906 L2403.5625,917.0156 C2403.5625,919.5938 2405.6719,921.4844 2408.5625,921.4844 C2409.7813,921.4844 2410.9375,921.1875 2411.6875,920.6406 C2412.2656,920.2344 2412.5938,919.7813 2412.5938,919.3906 C2412.5938,918.9375 2412.2031,918.5469 2411.7344,918.5469 C2411.5156,918.5469 2411.3125,918.625 2411.125,918.8125 C2410.6719,919.2969 2410.6719,919.2969 2410.4844,919.3906 C2410.0625,919.6563 2409.375,919.7813 2408.6094,919.7813 C2406.5625,919.7813 2405.2656,918.6875 2405.2656,916.9844 L2405.2656,915.8906 C2405.2656,914.1094 2406.5156,912.7969 2408.25,912.7969 C2408.8281,912.7969 2409.4375,912.9531 2409.9063,913.2031 C2410.3906,913.4844 2410.5625,913.7031 2410.6563,914.1094 C2410.7188,914.5156 2410.75,914.6406 2410.8906,914.7656 C2411.0313,914.9063 2411.2656,915.0156 2411.4844,915.0156 C2411.75,915.0156 2412.0156,914.875 2412.1875,914.6563 C2412.2969,914.5 2412.3281,914.3125 2412.3281,913.8906 L2412.3281,912.4688 C2412.3281,912.0313 2412.3125,911.9063 2412.2188,911.75 C2412.0625,911.4844 2411.7813,911.3438 2411.4844,911.3438 C2411.1875,911.3438 2410.9844,911.4375 2410.7656,911.75 L2410.5938,911.6719 Z " fill="#000000"/><text fill="#000000" font-family="sans-serif" font-size="12" lengthAdjust="spacing" textLength="45" x="2428.75" y="920.1543">Present</text><line style="stroke:#A80036;stroke-width:1.5;" x1="2361.5" x2="2508.5" y1="932" y2="932"/><text fill="#000000" font-family="sans-serif" font-size="11" lengthAdjust="spacing" textLength="137" x="2366.5" y="946.2104">bool m_isTaken = false;</text><line style="stroke:#A80036;stroke-width:1.5;" x1="2361.5" x2="2508.5" y1="952.8047" y2="952.8047"/><text fill="#000000" font-family="sans-serif" font-size="11" lengthAdjust="spacing" textLength="117" x="2366.5" y="967.0151">bool isTaken() const;</text><!--MD5=[b098efa4dd65edfeebe973e4edec7c36]
class Floor--><rect codeLine="106" fill="#FEFECE" filter="url(#f1txkw6j3g52qa)" height="112.0234" id="Floor" style="stroke:#A80036;stroke-width:1.5;" width="344" x="2545" y="881"/><ellipse cx="2697.25" cy="897" fill="#ADD1B2" rx="11" ry="11" style="stroke:#A80036;stroke-width:1.0;"/><path d="M2699.5938,892.6719 C2698.6563,892.2344 2698.0625,892.0938 2697.1875,892.0938 C2694.5625,892.0938 2692.5625,894.1719 2692.5625,896.8906 L2692.5625,898.0156 C2692.5625,900.5938 2694.6719,902.4844 2697.5625,902.4844 C2698.7813,902.4844 2699.9375,902.1875 2700.6875,901.6406 C2701.2656,901.2344 2701.5938,900.7813 2701.5938,900.3906 C2701.5938,899.9375 2701.2031,899.5469 2700.7344,899.5469 C2700.5156,899.5469 2700.3125,899.625 2700.125,899.8125 C2699.6719,900.2969 2699.6719,900.2969 2699.4844,900.3906 C2699.0625,900.6563 2698.375,900.7813 2697.6094,900.7813 C2695.5625,900.7813 2694.2656,899.6875 2694.2656,897.9844 L2694.2656,896.8906 C2694.2656,895.1094 2695.5156,893.7969 2697.25,893.7969 C2697.8281,893.7969 2698.4375,893.9531 2698.9063,894.2031 C2699.3906,894.4844 2699.5625,894.7031 2699.6563,895.1094 C2699.7188,895.5156 2699.75,895.6406 2699.8906,895.7656 C2700.0313,895.9063 2700.2656,896.0156 2700.4844,896.0156 C2700.75,896.0156 2701.0156,895.875 2701.1875,895.6563 C2701.2969,895.5 2701.3281,895.3125 2701.3281,894.8906 L2701.3281,893.4688 C2701.3281,893.0313 2701.3125,892.9063 2701.2188,892.75 C2701.0625,892.4844 2700.7813,892.3438 2700.4844,892.3438 C2700.1875,892.3438 2699.9844,892.4375 2699.7656,892.75 L2699.5938,892.6719 Z " fill="#000000"/><text fill="#000000" font-family="sans-serif" font-size="12" lengthAdjust="spacing" textLength="31" x="2717.75" y="901.1543">Floor</text><line style="stroke:#A80036;stroke-width:1.5;" x1="2546" x2="2888" y1="913" y2="913"/><text fill="#000000" font-family="sans-serif" font-size="11" lengthAdjust="spacing" textLength="136" x="2551" y="927.2104">static bool m_isDigged ;</text><line style="stroke:#A80036;stroke-width:1.5;" x1="2546" x2="2888" y1="933.8047" y2="933.8047"/><text fill="#000000" font-family="sans-serif" font-size="11" lengthAdjust="spacing" textLength="332" x="2551" y="948.0151">void handleCollision(GameObject&amp; gameObject) override;</text><text fill="#000000" font-family="sans-serif" font-size="11" lengthAdjust="spacing" textLength="172" x="2551" y="960.8198">static void setDigStatusTrue();</text><text fill="#000000" font-family="sans-serif" font-size="11" lengthAdjust="spacing" textLength="176" x="2551" y="973.6245">static void setDigStatusFalse();</text><text fill="#000000" font-family="sans-serif" font-size="11" lengthAdjust="spacing" textLength="147" x="2551" y="986.4292">static bool getDigStatus();</text><!--MD5=[d3ab82d2e0f0504252b121b610d06d7f]
class PresentGood--><rect codeLine="115" fill="#FEFECE" filter="url(#f1txkw6j3g52qa)" height="99.2188" id="PresentGood" style="stroke:#A80036;stroke-width:1.5;" width="344" x="1884" y="1053"/><ellipse cx="2012.75" cy="1069" fill="#ADD1B2" rx="11" ry="11" style="stroke:#A80036;stroke-width:1.0;"/><path d="M2015.0938,1064.6719 C2014.1563,1064.2344 2013.5625,1064.0938 2012.6875,1064.0938 C2010.0625,1064.0938 2008.0625,1066.1719 2008.0625,1068.8906 L2008.0625,1070.0156 C2008.0625,1072.5938 2010.1719,1074.4844 2013.0625,1074.4844 C2014.2813,1074.4844 2015.4375,1074.1875 2016.1875,1073.6406 C2016.7656,1073.2344 2017.0938,1072.7813 2017.0938,1072.3906 C2017.0938,1071.9375 2016.7031,1071.5469 2016.2344,1071.5469 C2016.0156,1071.5469 2015.8125,1071.625 2015.625,1071.8125 C2015.1719,1072.2969 2015.1719,1072.2969 2014.9844,1072.3906 C2014.5625,1072.6563 2013.875,1072.7813 2013.1094,1072.7813 C2011.0625,1072.7813 2009.7656,1071.6875 2009.7656,1069.9844 L2009.7656,1068.8906 C2009.7656,1067.1094 2011.0156,1065.7969 2012.75,1065.7969 C2013.3281,1065.7969 2013.9375,1065.9531 2014.4063,1066.2031 C2014.8906,1066.4844 2015.0625,1066.7031 2015.1563,1067.1094 C2015.2188,1067.5156 2015.25,1067.6406 2015.3906,1067.7656 C2015.5313,1067.9063 2015.7656,1068.0156 2015.9844,1068.0156 C2016.25,1068.0156 2016.5156,1067.875 2016.6875,1067.6563 C2016.7969,1067.5 2016.8281,1067.3125 2016.8281,1066.8906 L2016.8281,1065.4688 C2016.8281,1065.0313 2016.8125,1064.9063 2016.7188,1064.75 C2016.5625,1064.4844 2016.2813,1064.3438 2015.9844,1064.3438 C2015.6875,1064.3438 2015.4844,1064.4375 2015.2656,1064.75 L2015.0938,1064.6719 Z " fill="#000000"/><text fill="#000000" font-family="sans-serif" font-size="12" lengthAdjust="spacing" textLength="78" x="2033.25" y="1073.1543">PresentGood</text><line style="stroke:#A80036;stroke-width:1.5;" x1="1885" x2="2227" y1="1085" y2="1085"/><text fill="#000000" font-family="sans-serif" font-size="11" lengthAdjust="spacing" textLength="169" x="1890" y="1099.2104">static bool m_isPresentTaken;</text><line style="stroke:#A80036;stroke-width:1.5;" x1="1885" x2="2227" y1="1105.8047" y2="1105.8047"/><text fill="#000000" font-family="sans-serif" font-size="11" lengthAdjust="spacing" textLength="332" x="1890" y="1120.0151">void handleCollision(GameObject&amp; gameObject) override;</text><text fill="#000000" font-family="sans-serif" font-size="11" lengthAdjust="spacing" textLength="205" x="1890" y="1132.8198">static void setPresentTakenStatus();</text><text fill="#000000" font-family="sans-serif" font-size="11" lengthAdjust="spacing" textLength="206" x="1890" y="1145.6245">static bool getPresentTakenStatus();</text><!--MD5=[326eacf695d89443cc464f028fca8126]
class PresentBad--><rect codeLine="122" fill="#FEFECE" filter="url(#f1txkw6j3g52qa)" height="99.2188" id="PresentBad" style="stroke:#A80036;stroke-width:1.5;" width="344" x="2263" y="1053"/><ellipse cx="2396.75" cy="1069" fill="#ADD1B2" rx="11" ry="11" style="stroke:#A80036;stroke-width:1.0;"/><path d="M2399.0938,1064.6719 C2398.1563,1064.2344 2397.5625,1064.0938 2396.6875,1064.0938 C2394.0625,1064.0938 2392.0625,1066.1719 2392.0625,1068.8906 L2392.0625,1070.0156 C2392.0625,1072.5938 2394.1719,1074.4844 2397.0625,1074.4844 C2398.2813,1074.4844 2399.4375,1074.1875 2400.1875,1073.6406 C2400.7656,1073.2344 2401.0938,1072.7813 2401.0938,1072.3906 C2401.0938,1071.9375 2400.7031,1071.5469 2400.2344,1071.5469 C2400.0156,1071.5469 2399.8125,1071.625 2399.625,1071.8125 C2399.1719,1072.2969 2399.1719,1072.2969 2398.9844,1072.3906 C2398.5625,1072.6563 2397.875,1072.7813 2397.1094,1072.7813 C2395.0625,1072.7813 2393.7656,1071.6875 2393.7656,1069.9844 L2393.7656,1068.8906 C2393.7656,1067.1094 2395.0156,1065.7969 2396.75,1065.7969 C2397.3281,1065.7969 2397.9375,1065.9531 2398.4063,1066.2031 C2398.8906,1066.4844 2399.0625,1066.7031 2399.1563,1067.1094 C2399.2188,1067.5156 2399.25,1067.6406 2399.3906,1067.7656 C2399.5313,1067.9063 2399.7656,1068.0156 2399.9844,1068.0156 C2400.25,1068.0156 2400.5156,1067.875 2400.6875,1067.6563 C2400.7969,1067.5 2400.8281,1067.3125 2400.8281,1066.8906 L2400.8281,1065.4688 C2400.8281,1065.0313 2400.8125,1064.9063 2400.7188,1064.75 C2400.5625,1064.4844 2400.2813,1064.3438 2399.9844,1064.3438 C2399.6875,1064.3438 2399.4844,1064.4375 2399.2656,1064.75 L2399.0938,1064.6719 Z " fill="#000000"/><text fill="#000000" font-family="sans-serif" font-size="12" lengthAdjust="spacing" textLength="68" x="2417.25" y="1073.1543">PresentBad</text><line style="stroke:#A80036;stroke-width:1.5;" x1="2264" x2="2606" y1="1085" y2="1085"/><text fill="#000000" font-family="sans-serif" font-size="11" lengthAdjust="spacing" textLength="191" x="2269" y="1099.2104">static bool m_isBadPresentTaken;</text><line style="stroke:#A80036;stroke-width:1.5;" x1="2264" x2="2606" y1="1105.8047" y2="1105.8047"/><text fill="#000000" font-family="sans-serif" font-size="11" lengthAdjust="spacing" textLength="332" x="2269" y="1120.0151">void handleCollision(GameObject&amp; gameObject) override;</text><text fill="#000000" font-family="sans-serif" font-size="11" lengthAdjust="spacing" textLength="192" x="2269" y="1132.8198">static void setBadPresentStatus();</text><text fill="#000000" font-family="sans-serif" font-size="11" lengthAdjust="spacing" textLength="193" x="2269" y="1145.6245">static bool getBadPresentStatus();</text><!--MD5=[1da8f80c0a6f875dfd1b47fac061377f]
class Coin--><rect codeLine="130" fill="#FEFECE" filter="url(#f1txkw6j3g52qa)" height="86.4141" id="Coin" style="stroke:#A80036;stroke-width:1.5;" width="344" x="2642" y="1059.5"/><ellipse cx="2796.75" cy="1075.5" fill="#ADD1B2" rx="11" ry="11" style="stroke:#A80036;stroke-width:1.0;"/><path d="M2799.0938,1071.1719 C2798.1563,1070.7344 2797.5625,1070.5938 2796.6875,1070.5938 C2794.0625,1070.5938 2792.0625,1072.6719 2792.0625,1075.3906 L2792.0625,1076.5156 C2792.0625,1079.0938 2794.1719,1080.9844 2797.0625,1080.9844 C2798.2813,1080.9844 2799.4375,1080.6875 2800.1875,1080.1406 C2800.7656,1079.7344 2801.0938,1079.2813 2801.0938,1078.8906 C2801.0938,1078.4375 2800.7031,1078.0469 2800.2344,1078.0469 C2800.0156,1078.0469 2799.8125,1078.125 2799.625,1078.3125 C2799.1719,1078.7969 2799.1719,1078.7969 2798.9844,1078.8906 C2798.5625,1079.1563 2797.875,1079.2813 2797.1094,1079.2813 C2795.0625,1079.2813 2793.7656,1078.1875 2793.7656,1076.4844 L2793.7656,1075.3906 C2793.7656,1073.6094 2795.0156,1072.2969 2796.75,1072.2969 C2797.3281,1072.2969 2797.9375,1072.4531 2798.4063,1072.7031 C2798.8906,1072.9844 2799.0625,1073.2031 2799.1563,1073.6094 C2799.2188,1074.0156 2799.25,1074.1406 2799.3906,1074.2656 C2799.5313,1074.4063 2799.7656,1074.5156 2799.9844,1074.5156 C2800.25,1074.5156 2800.5156,1074.375 2800.6875,1074.1563 C2800.7969,1074 2800.8281,1073.8125 2800.8281,1073.3906 L2800.8281,1071.9688 C2800.8281,1071.5313 2800.8125,1071.4063 2800.7188,1071.25 C2800.5625,1070.9844 2800.2813,1070.8438 2799.9844,1070.8438 C2799.6875,1070.8438 2799.4844,1070.9375 2799.2656,1071.25 L2799.0938,1071.1719 Z " fill="#000000"/><text fill="#000000" font-family="sans-serif" font-size="12" lengthAdjust="spacing" textLength="26" x="2817.25" y="1079.6543">Coin</text><line style="stroke:#A80036;stroke-width:1.5;" x1="2643" x2="2985" y1="1091.5" y2="1091.5"/><text fill="#000000" font-family="sans-serif" font-size="11" lengthAdjust="spacing" textLength="101" x="2648" y="1105.7104">static int m_coins;</text><line style="stroke:#A80036;stroke-width:1.5;" x1="2643" x2="2985" y1="1112.3047" y2="1112.3047"/><text fill="#000000" font-family="sans-serif" font-size="11" lengthAdjust="spacing" textLength="332" x="2648" y="1126.5151">void handleCollision(GameObject&amp; gameObject) override;</text><text fill="#000000" font-family="sans-serif" font-size="11" lengthAdjust="spacing" textLength="111" x="2648" y="1139.3198">static int getCoin() ;</text><!--MD5=[2cb47ba637a0d19583e6199456f6ad0b]
class Player--><rect codeLine="137" fill="#FEFECE" filter="url(#f1txkw6j3g52qa)" height="240.0703" id="Player" style="stroke:#A80036;stroke-width:1.5;" width="348" x="387" y="581"/><ellipse cx="538.75" cy="597" fill="#ADD1B2" rx="11" ry="11" style="stroke:#A80036;stroke-width:1.0;"/><path d="M541.0938,592.6719 C540.1563,592.2344 539.5625,592.0938 538.6875,592.0938 C536.0625,592.0938 534.0625,594.1719 534.0625,596.8906 L534.0625,598.0156 C534.0625,600.5938 536.1719,602.4844 539.0625,602.4844 C540.2813,602.4844 541.4375,602.1875 542.1875,601.6406 C542.7656,601.2344 543.0938,600.7813 543.0938,600.3906 C543.0938,599.9375 542.7031,599.5469 542.2344,599.5469 C542.0156,599.5469 541.8125,599.625 541.625,599.8125 C541.1719,600.2969 541.1719,600.2969 540.9844,600.3906 C540.5625,600.6563 539.875,600.7813 539.1094,600.7813 C537.0625,600.7813 535.7656,599.6875 535.7656,597.9844 L535.7656,596.8906 C535.7656,595.1094 537.0156,593.7969 538.75,593.7969 C539.3281,593.7969 539.9375,593.9531 540.4063,594.2031 C540.8906,594.4844 541.0625,594.7031 541.1563,595.1094 C541.2188,595.5156 541.25,595.6406 541.3906,595.7656 C541.5313,595.9063 541.7656,596.0156 541.9844,596.0156 C542.25,596.0156 542.5156,595.875 542.6875,595.6563 C542.7969,595.5 542.8281,595.3125 542.8281,594.8906 L542.8281,593.4688 C542.8281,593.0313 542.8125,592.9063 542.7188,592.75 C542.5625,592.4844 542.2813,592.3438 541.9844,592.3438 C541.6875,592.3438 541.4844,592.4375 541.2656,592.75 L541.0938,592.6719 Z " fill="#000000"/><text fill="#000000" font-family="sans-serif" font-size="12" lengthAdjust="spacing" textLength="36" x="559.25" y="601.1543">Player</text><line style="stroke:#A80036;stroke-width:1.5;" x1="388" x2="734" y1="613" y2="613"/><text fill="#000000" font-family="sans-serif" font-size="11" lengthAdjust="spacing" textLength="90" x="393" y="627.2104">static int m_life;</text><text fill="#000000" font-family="sans-serif" font-size="11" lengthAdjust="spacing" textLength="103" x="393" y="640.0151">static int m_score;</text><text fill="#000000" font-family="sans-serif" font-size="11" lengthAdjust="spacing" textLength="126" x="393" y="652.8198">static bool m_isDead ;</text><line style="stroke:#A80036;stroke-width:1.5;" x1="388" x2="734" y1="659.4141" y2="659.4141"/><text fill="#000000" font-family="sans-serif" font-size="11" lengthAdjust="spacing" textLength="264" x="393" y="673.6245">void Move(const sf::Time&amp; currTime) override;</text><text fill="#000000" font-family="sans-serif" font-size="11" lengthAdjust="spacing" textLength="336" x="393" y="686.4292">void handleCollision(GameObject&amp; gameObject) override ;</text><text fill="#000000" font-family="sans-serif" font-size="11" lengthAdjust="spacing" textLength="212" x="393" y="699.2339">void setSpritePlayer(sf::Sprite sprite);</text><text fill="#000000" font-family="sans-serif" font-size="11" lengthAdjust="spacing" textLength="173" x="393" y="712.0386">static void setScore(int score);</text><text fill="#000000" font-family="sans-serif" font-size="11" lengthAdjust="spacing" textLength="148" x="393" y="724.8433">static void setLife(int life);</text><text fill="#000000" font-family="sans-serif" font-size="11" lengthAdjust="spacing" textLength="188" x="393" y="737.6479">static void setDeadStatusFalse();</text><text fill="#000000" font-family="sans-serif" font-size="11" lengthAdjust="spacing" textLength="184" x="393" y="750.4526">static void setDeadStatusTrue();</text><text fill="#000000" font-family="sans-serif" font-size="11" lengthAdjust="spacing" textLength="107" x="393" y="763.2573">static int getLife() ;</text><text fill="#000000" font-family="sans-serif" font-size="11" lengthAdjust="spacing" textLength="119" x="393" y="776.062">static int getScore() ;</text><text fill="#000000" font-family="sans-serif" font-size="11" lengthAdjust="spacing" textLength="117" x="393" y="788.8667">static bool isDead() ;</text><text fill="#000000" font-family="sans-serif" font-size="11" lengthAdjust="spacing" textLength="214" x="393" y="801.6714">sf::Vector2f getPlayerLocation() const;</text><text fill="#000000" font-family="sans-serif" font-size="11" lengthAdjust="spacing" textLength="147" x="393" y="814.4761">void setDirectiomPlayer();</text><!--MD5=[80c532e980642ebbe770e7ed91e479d0]
class Enemy--><rect codeLine="156" fill="#FEFECE" filter="url(#f1txkw6j3g52qa)" height="60.8047" id="Enemy" style="stroke:#A80036;stroke-width:1.5;" width="113" x="770.5" y="670.5"/><ellipse cx="803.95" cy="686.5" fill="#ADD1B2" rx="11" ry="11" style="stroke:#A80036;stroke-width:1.0;"/><path d="M806.2938,682.1719 C805.3563,681.7344 804.7625,681.5938 803.8875,681.5938 C801.2625,681.5938 799.2625,683.6719 799.2625,686.3906 L799.2625,687.5156 C799.2625,690.0938 801.3719,691.9844 804.2625,691.9844 C805.4813,691.9844 806.6375,691.6875 807.3875,691.1406 C807.9656,690.7344 808.2938,690.2813 808.2938,689.8906 C808.2938,689.4375 807.9031,689.0469 807.4344,689.0469 C807.2156,689.0469 807.0125,689.125 806.825,689.3125 C806.3719,689.7969 806.3719,689.7969 806.1844,689.8906 C805.7625,690.1563 805.075,690.2813 804.3094,690.2813 C802.2625,690.2813 800.9656,689.1875 800.9656,687.4844 L800.9656,686.3906 C800.9656,684.6094 802.2156,683.2969 803.95,683.2969 C804.5281,683.2969 805.1375,683.4531 805.6063,683.7031 C806.0906,683.9844 806.2625,684.2031 806.3563,684.6094 C806.4188,685.0156 806.45,685.1406 806.5906,685.2656 C806.7313,685.4063 806.9656,685.5156 807.1844,685.5156 C807.45,685.5156 807.7156,685.375 807.8875,685.1563 C807.9969,685 808.0281,684.8125 808.0281,684.3906 L808.0281,682.9688 C808.0281,682.5313 808.0125,682.4063 807.9188,682.25 C807.7625,681.9844 807.4813,681.8438 807.1844,681.8438 C806.8875,681.8438 806.6844,681.9375 806.4656,682.25 L806.2938,682.1719 Z " fill="#000000"/><text fill="#000000" font-family="sans-serif" font-size="12" lengthAdjust="spacing" textLength="40" x="822.05" y="690.6543">Enemy</text><line style="stroke:#A80036;stroke-width:1.5;" x1="771.5" x2="882.5" y1="702.5" y2="702.5"/><text fill="#000000" font-family="sans-serif" font-size="11" lengthAdjust="spacing" textLength="101" x="776.5" y="716.7104">Player* m_player;</text><line style="stroke:#A80036;stroke-width:1.5;" x1="771.5" x2="882.5" y1="723.3047" y2="723.3047"/><!--MD5=[e2f6c8c04ca74fc79bac72aca50d22f6]
class EnemyRandom--><rect codeLine="161" fill="#FEFECE" filter="url(#f1txkw6j3g52qa)" height="86.4141" id="EnemyRandom" style="stroke:#A80036;stroke-width:1.5;" width="344" x="86" y="894"/><ellipse cx="209.75" cy="910" fill="#ADD1B2" rx="11" ry="11" style="stroke:#A80036;stroke-width:1.0;"/><path d="M212.0938,905.6719 C211.1563,905.2344 210.5625,905.0938 209.6875,905.0938 C207.0625,905.0938 205.0625,907.1719 205.0625,909.8906 L205.0625,911.0156 C205.0625,913.5938 207.1719,915.4844 210.0625,915.4844 C211.2813,915.4844 212.4375,915.1875 213.1875,914.6406 C213.7656,914.2344 214.0938,913.7813 214.0938,913.3906 C214.0938,912.9375 213.7031,912.5469 213.2344,912.5469 C213.0156,912.5469 212.8125,912.625 212.625,912.8125 C212.1719,913.2969 212.1719,913.2969 211.9844,913.3906 C211.5625,913.6563 210.875,913.7813 210.1094,913.7813 C208.0625,913.7813 206.7656,912.6875 206.7656,910.9844 L206.7656,909.8906 C206.7656,908.1094 208.0156,906.7969 209.75,906.7969 C210.3281,906.7969 210.9375,906.9531 211.4063,907.2031 C211.8906,907.4844 212.0625,907.7031 212.1563,908.1094 C212.2188,908.5156 212.25,908.6406 212.3906,908.7656 C212.5313,908.9063 212.7656,909.0156 212.9844,909.0156 C213.25,909.0156 213.5156,908.875 213.6875,908.6563 C213.7969,908.5 213.8281,908.3125 213.8281,907.8906 L213.8281,906.4688 C213.8281,906.0313 213.8125,905.9063 213.7188,905.75 C213.5625,905.4844 213.2813,905.3438 212.9844,905.3438 C212.6875,905.3438 212.4844,905.4375 212.2656,905.75 L212.0938,905.6719 Z " fill="#000000"/><text fill="#000000" font-family="sans-serif" font-size="12" lengthAdjust="spacing" textLength="88" x="230.25" y="914.1543">EnemyRandom</text><line style="stroke:#A80036;stroke-width:1.5;" x1="87" x2="429" y1="926" y2="926"/><text fill="#000000" font-family="sans-serif" font-size="11" lengthAdjust="spacing" textLength="63" x="92" y="940.2104">int m_rand;</text><line style="stroke:#A80036;stroke-width:1.5;" x1="87" x2="429" y1="946.8047" y2="946.8047"/><text fill="#000000" font-family="sans-serif" font-size="11" lengthAdjust="spacing" textLength="264" x="92" y="961.0151">void Move(const sf::Time&amp; currTime) override;</text><text fill="#000000" font-family="sans-serif" font-size="11" lengthAdjust="spacing" textLength="332" x="92" y="973.8198">void handleCollision(GameObject&amp; gameObject) override;</text><!--MD5=[848a47944445cf3759d1a6e4907d1e57]
class EnemySmart--><rect codeLine="168" fill="#FEFECE" filter="url(#f1txkw6j3g52qa)" height="73.6094" id="EnemySmart" style="stroke:#A80036;stroke-width:1.5;" width="344" x="465" y="900"/><ellipse cx="595.25" cy="916" fill="#ADD1B2" rx="11" ry="11" style="stroke:#A80036;stroke-width:1.0;"/><path d="M597.5938,911.6719 C596.6563,911.2344 596.0625,911.0938 595.1875,911.0938 C592.5625,911.0938 590.5625,913.1719 590.5625,915.8906 L590.5625,917.0156 C590.5625,919.5938 592.6719,921.4844 595.5625,921.4844 C596.7813,921.4844 597.9375,921.1875 598.6875,920.6406 C599.2656,920.2344 599.5938,919.7813 599.5938,919.3906 C599.5938,918.9375 599.2031,918.5469 598.7344,918.5469 C598.5156,918.5469 598.3125,918.625 598.125,918.8125 C597.6719,919.2969 597.6719,919.2969 597.4844,919.3906 C597.0625,919.6563 596.375,919.7813 595.6094,919.7813 C593.5625,919.7813 592.2656,918.6875 592.2656,916.9844 L592.2656,915.8906 C592.2656,914.1094 593.5156,912.7969 595.25,912.7969 C595.8281,912.7969 596.4375,912.9531 596.9063,913.2031 C597.3906,913.4844 597.5625,913.7031 597.6563,914.1094 C597.7188,914.5156 597.75,914.6406 597.8906,914.7656 C598.0313,914.9063 598.2656,915.0156 598.4844,915.0156 C598.75,915.0156 599.0156,914.875 599.1875,914.6563 C599.2969,914.5 599.3281,914.3125 599.3281,913.8906 L599.3281,912.4688 C599.3281,912.0313 599.3125,911.9063 599.2188,911.75 C599.0625,911.4844 598.7813,911.3438 598.4844,911.3438 C598.1875,911.3438 597.9844,911.4375 597.7656,911.75 L597.5938,911.6719 Z " fill="#000000"/><text fill="#000000" font-family="sans-serif" font-size="12" lengthAdjust="spacing" textLength="75" x="615.75" y="920.1543">EnemySmart</text><line style="stroke:#A80036;stroke-width:1.5;" x1="466" x2="808" y1="932" y2="932"/><line style="stroke:#A80036;stroke-width:1.5;" x1="466" x2="808" y1="940" y2="940"/><text fill="#000000" font-family="sans-serif" font-size="11" lengthAdjust="spacing" textLength="264" x="471" y="954.2104">void Move(const sf::Time&amp; currTime) override;</text><text fill="#000000" font-family="sans-serif" font-size="11" lengthAdjust="spacing" textLength="332" x="471" y="967.0151">void handleCollision(GameObject&amp; gameObject) override;</text><!--MD5=[5a5076205a7fdea485bd141c6ca94005]
class EnemyBoring--><rect codeLine="174" fill="#FEFECE" filter="url(#f1txkw6j3g52qa)" height="73.6094" id="EnemyBoring" style="stroke:#A80036;stroke-width:1.5;" width="344" x="844" y="900"/><ellipse cx="972.25" cy="916" fill="#ADD1B2" rx="11" ry="11" style="stroke:#A80036;stroke-width:1.0;"/><path d="M974.5938,911.6719 C973.6563,911.2344 973.0625,911.0938 972.1875,911.0938 C969.5625,911.0938 967.5625,913.1719 967.5625,915.8906 L967.5625,917.0156 C967.5625,919.5938 969.6719,921.4844 972.5625,921.4844 C973.7813,921.4844 974.9375,921.1875 975.6875,920.6406 C976.2656,920.2344 976.5938,919.7813 976.5938,919.3906 C976.5938,918.9375 976.2031,918.5469 975.7344,918.5469 C975.5156,918.5469 975.3125,918.625 975.125,918.8125 C974.6719,919.2969 974.6719,919.2969 974.4844,919.3906 C974.0625,919.6563 973.375,919.7813 972.6094,919.7813 C970.5625,919.7813 969.2656,918.6875 969.2656,916.9844 L969.2656,915.8906 C969.2656,914.1094 970.5156,912.7969 972.25,912.7969 C972.8281,912.7969 973.4375,912.9531 973.9063,913.2031 C974.3906,913.4844 974.5625,913.7031 974.6563,914.1094 C974.7188,914.5156 974.75,914.6406 974.8906,914.7656 C975.0313,914.9063 975.2656,915.0156 975.4844,915.0156 C975.75,915.0156 976.0156,914.875 976.1875,914.6563 C976.2969,914.5 976.3281,914.3125 976.3281,913.8906 L976.3281,912.4688 C976.3281,912.0313 976.3125,911.9063 976.2188,911.75 C976.0625,911.4844 975.7813,911.3438 975.4844,911.3438 C975.1875,911.3438 974.9844,911.4375 974.7656,911.75 L974.5938,911.6719 Z " fill="#000000"/><text fill="#000000" font-family="sans-serif" font-size="12" lengthAdjust="spacing" textLength="79" x="992.75" y="920.1543">EnemyBoring</text><line style="stroke:#A80036;stroke-width:1.5;" x1="845" x2="1187" y1="932" y2="932"/><line style="stroke:#A80036;stroke-width:1.5;" x1="845" x2="1187" y1="940" y2="940"/><text fill="#000000" font-family="sans-serif" font-size="11" lengthAdjust="spacing" textLength="264" x="850" y="954.2104">void Move(const sf::Time&amp; currTime) override;</text><text fill="#000000" font-family="sans-serif" font-size="11" lengthAdjust="spacing" textLength="332" x="850" y="967.0151">void handleCollision(GameObject&amp; gameObject) override;</text><!--MD5=[964f074a2dd77d134c21b891bb53e381]
class Image--><rect codeLine="180" fill="#FEFECE" filter="url(#f1txkw6j3g52qa)" height="163.2422" id="Image" style="stroke:#A80036;stroke-width:1.5;" width="266" x="7" y="358"/><ellipse cx="117.25" cy="374" fill="#ADD1B2" rx="11" ry="11" style="stroke:#A80036;stroke-width:1.0;"/><path d="M119.5938,369.6719 C118.6563,369.2344 118.0625,369.0938 117.1875,369.0938 C114.5625,369.0938 112.5625,371.1719 112.5625,373.8906 L112.5625,375.0156 C112.5625,377.5938 114.6719,379.4844 117.5625,379.4844 C118.7813,379.4844 119.9375,379.1875 120.6875,378.6406 C121.2656,378.2344 121.5938,377.7813 121.5938,377.3906 C121.5938,376.9375 121.2031,376.5469 120.7344,376.5469 C120.5156,376.5469 120.3125,376.625 120.125,376.8125 C119.6719,377.2969 119.6719,377.2969 119.4844,377.3906 C119.0625,377.6563 118.375,377.7813 117.6094,377.7813 C115.5625,377.7813 114.2656,376.6875 114.2656,374.9844 L114.2656,373.8906 C114.2656,372.1094 115.5156,370.7969 117.25,370.7969 C117.8281,370.7969 118.4375,370.9531 118.9063,371.2031 C119.3906,371.4844 119.5625,371.7031 119.6563,372.1094 C119.7188,372.5156 119.75,372.6406 119.8906,372.7656 C120.0313,372.9063 120.2656,373.0156 120.4844,373.0156 C120.75,373.0156 121.0156,372.875 121.1875,372.6563 C121.2969,372.5 121.3281,372.3125 121.3281,371.8906 L121.3281,370.4688 C121.3281,370.0313 121.3125,369.9063 121.2188,369.75 C121.0625,369.4844 120.7813,369.3438 120.4844,369.3438 C120.1875,369.3438 119.9844,369.4375 119.7656,369.75 L119.5938,369.6719 Z " fill="#000000"/><text fill="#000000" font-family="sans-serif" font-size="12" lengthAdjust="spacing" textLength="37" x="137.75" y="378.1543">Image</text><line style="stroke:#A80036;stroke-width:1.5;" x1="8" x2="272" y1="390" y2="390"/><text fill="#000000" font-family="sans-serif" font-size="11" lengthAdjust="spacing" textLength="166" x="13" y="404.2104">vector&lt;sf::Sprite&gt; m_sprites;</text><text fill="#000000" font-family="sans-serif" font-size="11" lengthAdjust="spacing" textLength="181" x="13" y="417.0151">vector&lt;sf::Texture&gt; m_texture;</text><text fill="#000000" font-family="sans-serif" font-size="11" lengthAdjust="spacing" textLength="86" x="13" y="429.8198">sf::Font m_font;</text><line style="stroke:#A80036;stroke-width:1.5;" x1="8" x2="272" y1="436.4141" y2="436.4141"/><text fill="#000000" font-family="sans-serif" font-size="11" lengthAdjust="spacing" textLength="105" x="13" y="450.6245">void loadImages();</text><text fill="#000000" font-family="sans-serif" font-size="11" lengthAdjust="spacing" textLength="142" x="13" y="463.4292">static Image&amp; instance();</text><text fill="#000000" font-family="sans-serif" font-size="11" lengthAdjust="spacing" textLength="254" x="13" y="476.2339">const sf::Sprite getSprite(const char c) const;</text><text fill="#000000" font-family="sans-serif" font-size="11" lengthAdjust="spacing" textLength="166" x="13" y="489.0386">const sf::Font getFont() const;</text><text fill="#000000" font-family="sans-serif" font-size="11" lengthAdjust="spacing" textLength="183" x="13" y="501.8433">Image(const Image&amp;) = default;</text><text fill="#000000" font-family="sans-serif" font-size="11" lengthAdjust="spacing" textLength="253" x="13" y="514.6479">Image&amp; operator=(const Image&amp;) = default;</text><!--MD5=[7c6ef8b895df9314a0380c40ae29cd9f]
class Sounds--><rect codeLine="193" fill="#FEFECE" filter="url(#f1txkw6j3g52qa)" height="137.6328" id="Sounds" style="stroke:#A80036;stroke-width:1.5;" width="277" x="308.5" y="370.5"/><ellipse cx="420.25" cy="386.5" fill="#ADD1B2" rx="11" ry="11" style="stroke:#A80036;stroke-width:1.0;"/><path d="M422.5938,382.1719 C421.6563,381.7344 421.0625,381.5938 420.1875,381.5938 C417.5625,381.5938 415.5625,383.6719 415.5625,386.3906 L415.5625,387.5156 C415.5625,390.0938 417.6719,391.9844 420.5625,391.9844 C421.7813,391.9844 422.9375,391.6875 423.6875,391.1406 C424.2656,390.7344 424.5938,390.2813 424.5938,389.8906 C424.5938,389.4375 424.2031,389.0469 423.7344,389.0469 C423.5156,389.0469 423.3125,389.125 423.125,389.3125 C422.6719,389.7969 422.6719,389.7969 422.4844,389.8906 C422.0625,390.1563 421.375,390.2813 420.6094,390.2813 C418.5625,390.2813 417.2656,389.1875 417.2656,387.4844 L417.2656,386.3906 C417.2656,384.6094 418.5156,383.2969 420.25,383.2969 C420.8281,383.2969 421.4375,383.4531 421.9063,383.7031 C422.3906,383.9844 422.5625,384.2031 422.6563,384.6094 C422.7188,385.0156 422.75,385.1406 422.8906,385.2656 C423.0313,385.4063 423.2656,385.5156 423.4844,385.5156 C423.75,385.5156 424.0156,385.375 424.1875,385.1563 C424.2969,385 424.3281,384.8125 424.3281,384.3906 L424.3281,382.9688 C424.3281,382.5313 424.3125,382.4063 424.2188,382.25 C424.0625,381.9844 423.7813,381.8438 423.4844,381.8438 C423.1875,381.8438 422.9844,381.9375 422.7656,382.25 L422.5938,382.1719 Z " fill="#000000"/><text fill="#000000" font-family="sans-serif" font-size="12" lengthAdjust="spacing" textLength="45" x="440.75" y="390.6543">Sounds</text><line style="stroke:#A80036;stroke-width:1.5;" x1="309.5" x2="584.5" y1="402.5" y2="402.5"/><text fill="#000000" font-family="sans-serif" font-size="11" lengthAdjust="spacing" textLength="246" x="314.5" y="416.7104">vector &lt; sf::SoundBuffer &gt; m_soundBuffer;</text><text fill="#000000" font-family="sans-serif" font-size="11" lengthAdjust="spacing" textLength="182" x="314.5" y="429.5151">vector &lt; sf::Sound &gt; m_sounds;</text><line style="stroke:#A80036;stroke-width:1.5;" x1="309.5" x2="584.5" y1="436.1094" y2="436.1094"/><text fill="#000000" font-family="sans-serif" font-size="11" lengthAdjust="spacing" textLength="148" x="314.5" y="450.3198">static Sounds&amp; instance();</text><text fill="#000000" font-family="sans-serif" font-size="11" lengthAdjust="spacing" textLength="175" x="314.5" y="463.1245">void makeSound(const char c);</text><text fill="#000000" font-family="sans-serif" font-size="11" lengthAdjust="spacing" textLength="195" x="314.5" y="475.9292">Sounds(const Sounds&amp;) = default;</text><text fill="#000000" font-family="sans-serif" font-size="11" lengthAdjust="spacing" textLength="265" x="314.5" y="488.7339">Sounds&amp; operator=(const Sounds&amp;) = default;</text><text fill="#000000" font-family="sans-serif" font-size="11" lengthAdjust="spacing" textLength="105" x="314.5" y="501.5386">void loadSounds();</text><!--MD5=[3d074c31ed68b2798fedff600a9094b1]
reverse link GameObject to StaticObject--><path codeLine="204" d="M1395.09,237.029 C1483.37,283.966 1591.13,341.267 1669.14,382.743 " fill="none" id="GameObject-backto-StaticObject" style="stroke:#A80036;stroke-width:1.0;"/><polygon fill="none" points="1391.8,243.207,1377.43,227.636,1398.37,230.845,1391.8,243.207" style="stroke:#A80036;stroke-width:1.0;"/><!--MD5=[82c0a8aafa3019b7147fc7421fa4dbb7]
reverse link GameObject to MovingObject--><path codeLine="205" d="M1114.33,239.259 C1043.29,288.517 956.666,348.586 897.219,389.808 " fill="none" id="GameObject-backto-MovingObject" style="stroke:#A80036;stroke-width:1.0;"/><polygon fill="none" points="1110.66,233.281,1131.09,227.636,1118.64,244.785,1110.66,233.281" style="stroke:#A80036;stroke-width:1.0;"/><!--MD5=[8aef818fac27eb42a097ccf3c8c49bb5]
reverse link StaticObject to ConstStaticObj--><path codeLine="206" d="M1774,528.93 C1774,581.342 1774,643.799 1774,676.836 " fill="none" id="StaticObject-backto-ConstStaticObj" style="stroke:#A80036;stroke-width:1.0;"/><polygon fill="none" points="1767,528.681,1774,508.681,1781,528.681,1767,528.681" style="stroke:#A80036;stroke-width:1.0;"/><!--MD5=[b36553b1c3380a5b15497879b8aa0175]
reverse link StaticObject to VariableStaticObj--><path codeLine="207" d="M1897.41,488.949 C2040.05,544.946 2268.87,634.781 2376.05,676.855 " fill="none" id="StaticObject-backto-VariableStaticObj" style="stroke:#A80036;stroke-width:1.0;"/><polygon fill="none" points="1894.8,495.443,1878.74,481.619,1899.91,482.411,1894.8,495.443" style="stroke:#A80036;stroke-width:1.0;"/><!--MD5=[1950a86050e418108316c8663646435c]
reverse link ConstStaticObj to Ladder--><path codeLine="208" d="M1719.29,735.778 C1651.67,777.526 1536.59,848.58 1463.26,893.855 " fill="none" id="ConstStaticObj-backto-Ladder" style="stroke:#A80036;stroke-width:1.0;"/><polygon fill="none" points="1715.93,729.628,1736.62,725.077,1723.28,741.54,1715.93,729.628" style="stroke:#A80036;stroke-width:1.0;"/><!--MD5=[e6774b06170ffc65e8354e8dd07b9179]
reverse link ConstStaticObj to Pole--><path codeLine="209" d="M1774,745.304 C1774,792.126 1774,865.506 1774,906.238 " fill="none" id="ConstStaticObj-backto-Pole" style="stroke:#A80036;stroke-width:1.0;"/><polygon fill="none" points="1767,745.292,1774,725.292,1781,745.292,1767,745.292" style="stroke:#A80036;stroke-width:1.0;"/><!--MD5=[2341f8e0301384e02029c100d54bb2a3]
reverse link ConstStaticObj to Wall--><path codeLine="210" d="M1828.49,735.645 C1902.69,781.456 2034.34,862.735 2105,906.363 " fill="none" id="ConstStaticObj-backto-Wall" style="stroke:#A80036;stroke-width:1.0;"/><polygon fill="none" points="1824.72,741.54,1811.38,725.077,1832.07,729.628,1824.72,741.54" style="stroke:#A80036;stroke-width:1.0;"/><!--MD5=[ec74e7360460d493023227a679355eed]
reverse link VariableStaticObj to Present--><path codeLine="211" d="M2435,745.559 C2435,790.041 2435,858.301 2435,899.878 " fill="none" id="VariableStaticObj-backto-Present" style="stroke:#A80036;stroke-width:1.0;"/><polygon fill="none" points="2428,745.292,2435,725.292,2442,745.292,2428,745.292" style="stroke:#A80036;stroke-width:1.0;"/><!--MD5=[6510d885a4851006c4cd1ee5e3c1cf57]
reverse link VariableStaticObj to Floor--><path codeLine="212" d="M2478.41,738.024 C2524.32,776.121 2597.33,836.698 2650.5,880.82 " fill="none" id="VariableStaticObj-backto-Floor" style="stroke:#A80036;stroke-width:1.0;"/><polygon fill="none" points="2473.73,743.236,2462.81,725.077,2482.67,732.462,2473.73,743.236" style="stroke:#A80036;stroke-width:1.0;"/><!--MD5=[9a714331c22e7463b272fad74532d193]
reverse link Present to Coin--><path codeLine="213" d="M2510.29,983.972 C2516.22,987.147 2522.17,990.195 2528,993 C2579.57,1017.803 2638.39,1040.949 2689.23,1059.4378 " fill="none" id="Present-backto-Coin" style="stroke:#A80036;stroke-width:1.0;"/><polygon fill="none" points="2506.78,990.028,2492.7,974.186,2513.58,977.794,2506.78,990.028" style="stroke:#A80036;stroke-width:1.0;"/><!--MD5=[07499b6172e82df99ca911b762bda03c]
reverse link Present to PresentGood--><path codeLine="214" d="M2360.27,984.148 C2354.49,987.262 2348.69,990.25 2343,993 C2297.32,1015.075 2245.9,1035.744 2199.33,1052.9962 " fill="none" id="Present-backto-PresentGood" style="stroke:#A80036;stroke-width:1.0;"/><polygon fill="none" points="2357.09,977.907,2377.95,974.224,2363.94,990.116,2357.09,977.907" style="stroke:#A80036;stroke-width:1.0;"/><!--MD5=[b21e806944ff11f3eb8c0d83f3162f93]
reverse link Present to PresentBad--><path codeLine="215" d="M2435,994.314 C2435,1013.38 2435,1034.495 2435,1052.908 " fill="none" id="Present-backto-PresentBad" style="stroke:#A80036;stroke-width:1.0;"/><polygon fill="none" points="2428,994.286,2435,974.286,2442,994.286,2428,994.286" style="stroke:#A80036;stroke-width:1.0;"/><!--MD5=[285358b3ec61796af04d07468bb8e3bc]
reverse link MovingObject to Player--><path codeLine="216" d="M762.896,503.037 C738.867,526.48 710.692,553.965 683.144,580.841 " fill="none" id="MovingObject-backto-Player" style="stroke:#A80036;stroke-width:1.0;"/><polygon fill="none" points="758.075,497.961,777.279,489.006,767.852,507.982,758.075,497.961" style="stroke:#A80036;stroke-width:1.0;"/><!--MD5=[4cb3c25b9ca5b65ec5f630f1f9803501]
reverse link MovingObject to Enemy--><path codeLine="217" d="M827,509.221 C827,561.663 827,631.331 827,670.322 " fill="none" id="MovingObject-backto-Enemy" style="stroke:#A80036;stroke-width:1.0;"/><polygon fill="none" points="820,509.006,827,489.006,834,509.006,820,509.006" style="stroke:#A80036;stroke-width:1.0;"/><!--MD5=[edcc56584457907d98ed2379dd6e551d]
reverse link Enemy to EnemyRandom--><path codeLine="218" d="M808.326,750.081 C796.222,774.992 778.002,803.735 753,821 C639.318,899.503 582.259,848.428 448,881 C431.731,884.947 414.768,889.385 397.966,893.984 " fill="none" id="Enemy-backto-EnemyRandom" style="stroke:#A80036;stroke-width:1.0;"/><polygon fill="none" points="802.021,747.032,816.568,731.625,814.805,752.741,802.021,747.032" style="stroke:#A80036;stroke-width:1.0;"/><!--MD5=[e942c33318a31de317ca2cd8e2017a01]
reverse link Enemy to EnemySmart--><path codeLine="219" d="M801.197,749.02 C787.95,771.619 770.861,798.596 753,821 C730.373,849.383 701.373,878.133 678.03,899.787 " fill="none" id="Enemy-backto-EnemySmart" style="stroke:#A80036;stroke-width:1.0;"/><polygon fill="none" points="795.136,745.517,811.145,731.634,807.288,752.47,795.136,745.517" style="stroke:#A80036;stroke-width:1.0;"/><!--MD5=[188c4bf4097cea9d85f5c8a2bfe30ba4]
reverse link Enemy to EnemyBoring--><path codeLine="220" d="M863.73,747.475 C899.626,791.918 953.567,858.702 986.683,899.702 " fill="none" id="Enemy-backto-EnemyBoring" style="stroke:#A80036;stroke-width:1.0;"/><polygon fill="none" points="858.058,751.593,850.937,731.636,868.949,742.797,858.058,751.593" style="stroke:#A80036;stroke-width:1.0;"/><!--MD5=[9324a4fcebb900a394c965225b9aee64]
link GameManger to Board--><!--MD5=[fd2f712eb834757addb8f18959db6fb1]
link GameManger to Image--><!--MD5=[03c9bcc63fa2dec7ae60bd8ee787c208]
link Image to Sounds--><!--MD5=[ac074afaa61a6e6150d9bc79838b8e76]
@startuml
class GameManger
{
void Run()
	void setSizeWindow(const sf::Vector2f size);
	void handleWinLevel();
	void handleLooseLevel();
	void welcomeWindow();
	void winLevel();
	void looseGame();
	void winGame();
	sf::RenderWindow m_window;
	Board m_board;
	sf::Clock m_clock;
	sf::Clock m_clockRunning;
	sf::Time m_timeRunning;
	sf::Music m_music;
	sf::Vector2f m_MousePos;
	int m_counterLevels;
}

class Board
{
	void openFile();
	void allocateBoard();
	void Draw(sf::RenderWindow& window) const;
	void Update(const sf::Time& currTime, const sf::Time runTime);
	void floorDigged(const sf::Vector2f direction);
	void setLevel(int level);
	void setLevelStatus();
	void setRestartLevel();
	void setTime(const sf::Time runTime);
	sf::Vector2f getSizeBoard() const;
	bool getLevelStatus() const;
	bool getRestartLevel() const;
	int getLevel()const;
	int getLife()const;
	int getScore()const;
	float getTime() const;
	int getCoins()const;
	bool getEndGame() const;
	bool getWinGame() const;
}


class GameObject
{
	void Draw(sf::RenderWindow& window) const;
	bool collidesWith(GameObject& gameObject) const;
	virtual void handleCollision(GameObject& gameObject) = 0;
	void setLocation(sf::Vector2f location);
	void setSprite(sf::Sprite sprite);
	void setLastLocation(sf::Vector2f location);
	void setInPit();
	void setNotInPit();
}

class MovingObject
{
	virtual void Move(const sf::Time& currTime) = 0;
	void setDirection(sf::Vector2f direction);
	sf::Vector2f m_lastLocation;
	sf::Vector2f m_direction;
}

class StaticObject
{
 void setUnDrawable();
	 void setDrawable();
	 void setTime();
	 bool getUnDrawableStatus() const;
	 sf::Time getTime() const;
	bool m_isUndrawable = false;
	sf::Clock m_clock;
}


class ConstStaticObj
{
}

class VariableStaticObj
{
}

class Ladder
{
	void handleCollision(GameObject& gameObject) override;
	bool isOnLadder() const;
	bool m_isOnLadder = false;
}
class Pole
{
void handleCollision(GameObject& gameObject) override;

}

class Wall
{
void handleCollision(GameObject& gameObject) override;
}
class Present
{
bool isTaken() const;
bool m_isTaken = false;
}
class Floor
{
	void handleCollision(GameObject& gameObject) override;
	static void setDigStatusTrue();
	static void setDigStatusFalse();
	static bool getDigStatus();
	static bool m_isDigged ;
}

class PresentGood
{
	void handleCollision(GameObject& gameObject) override;
	static void setPresentTakenStatus();
	static bool getPresentTakenStatus();
	static bool m_isPresentTaken;
}
class PresentBad
{
	void handleCollision(GameObject& gameObject) override;
	static void setBadPresentStatus();
	static bool getBadPresentStatus();
	static bool m_isBadPresentTaken;
}

class Coin
{
	void handleCollision(GameObject& gameObject) override;
	static int getCoin() ;
	static int m_coins;
}

class Player
{
	void Move(const sf::Time& currTime) override;
	void handleCollision(GameObject& gameObject) override ;
	void setSpritePlayer(sf::Sprite sprite);
	static void setScore(int score);
	static void setLife(int life);
	static void setDeadStatusFalse();
	static void setDeadStatusTrue();
	static int getLife() ;
	static int getScore() ;
	static bool isDead() ;
	sf::Vector2f getPlayerLocation() const;
	void setDirectiomPlayer();
	static int m_life;
	static int m_score;
	static bool m_isDead ;
}

class Enemy
{
Player* m_player;
}

class EnemyRandom
{
	void Move(const sf::Time& currTime) override;
	void handleCollision(GameObject& gameObject) override;
	int m_rand;
}

class EnemySmart
{
	void Move(const sf::Time& currTime) override;
	void handleCollision(GameObject& gameObject) override;
}

class EnemyBoring
{
	void Move(const sf::Time& currTime) override;
	void handleCollision(GameObject& gameObject) override;
}

class Image
{
	void loadImages();
	static Image& instance();
	const sf::Sprite getSprite(const char c) const;
	const sf::Font getFont() const;
	Image(const Image&) = default;
	Image& operator=(const Image&) = default;
	vector<sf::Sprite> m_sprites;
	vector<sf::Texture> m_texture;
	sf::Font m_font;
}

class Sounds
{
	static Sounds& instance();
	void makeSound(const char c);
	Sounds(const Sounds&) = default;
	Sounds& operator=(const Sounds&) = default;
	void loadSounds();
	vector < sf::SoundBuffer > m_soundBuffer;
	vector < sf::Sound > m_sounds;
}

GameObject <|- - StaticObject
GameObject <|- - MovingObject
StaticObject <|- - ConstStaticObj
StaticObject <|- - VariableStaticObj
ConstStaticObj <|- - Ladder
ConstStaticObj <|- - Pole
ConstStaticObj <|- - Wall
VariableStaticObj <|- - Present
VariableStaticObj <|- - Floor
Present <|- - Coin
Present <|- - PresentGood
Present <|- - PresentBad
MovingObject <|- - Player
MovingObject <|- - Enemy
Enemy <|- - EnemyRandom
Enemy <|- - EnemySmart
Enemy <|- - EnemyBoring
@enduml

PlantUML version 1.2021.01beta3(Unknown compile time)
(GPL source distribution)
Java Runtime: Java(TM) SE Runtime Environment
JVM: Java HotSpot(TM) 64-Bit Server VM
Default Encoding: UTF-8
Language: en
Country: US
--></g></svg>